<?xml version="1.0" encoding="utf-8"?>
<!-- Generator: Adobe Illustrator 15.0.0, SVG Export Plug-In . SVG Version: 6.00 Build 0)  -->
<!DOCTYPE svg PUBLIC "-//W3C//DTD SVG 1.1//EN" "http://www.w3.org/Graphics/SVG/1.1/DTD/svg11.dtd">
<svg version="1.1" id="Layer_1" xmlns="http://www.w3.org/2000/svg" xmlns:xlink="http://www.w3.org/1999/xlink" x="0px" y="0px"
	 width="200px" height="200px" viewBox="0 0 200 200" enable-background="new 0 0 200 200" xml:space="preserve">
<path d="M200,188c0,6.627-5.373,12-12,12H12c-6.627,0-12-5.373-12-12V12C0,5.373,5.373,0,12,0h176c6.627,0,12,5.373,12,12V188z"/>
<g>
	<path fill="#FFFFFF" d="M172.388,174.184h-21.343c-2.391,0-4.358-0.598-5.898-1.797c-1.536-1.195-2.651-2.682-3.333-4.463
		l-11.082-30.27H69.269l-11.078,30.27c-0.552,1.576-1.627,3.014-3.233,4.309c-1.606,1.303-3.574,1.951-5.898,1.951H27.612
		L85.896,25.817h28.216L172.388,174.184z M76.35,118.162h47.301l-18.056-49.354c-0.821-2.188-1.73-4.771-2.719-7.748
		c-0.995-2.974-1.971-6.208-2.926-9.696c-0.959,3.488-1.897,6.738-2.822,9.748c-0.926,3.011-1.83,5.643-2.719,7.901L76.35,118.162z"
		/>
</g>
</svg>
